<svg width="123" height="32" viewBox="0 0 123 32" fill="none" xmlns="http://www.w3.org/2000/svg">
<path d="M16 16.1663C18.1357 16.1663 20.032 16.4929 21.3643 16.9925C22.0334 17.2434 22.517 17.5222 22.8184 17.7894C23.1207 18.0574 23.167 18.243 23.167 18.3333C23.167 18.4236 23.1207 18.6092 22.8184 18.8773C22.517 19.1445 22.0334 19.4232 21.3643 19.6742C20.032 20.1737 18.1357 20.5003 16 20.5003C13.8643 20.5003 11.968 20.1737 10.6357 19.6742C9.9666 19.4232 9.48302 19.1445 9.18164 18.8773C8.87933 18.6092 8.83301 18.4236 8.83301 18.3333C8.83301 18.243 8.87933 18.0574 9.18164 17.7894C9.48302 17.5222 9.9666 17.2434 10.6357 16.9925C11.968 16.4929 13.8643 16.1663 16 16.1663Z" stroke="#FAFAFA" stroke-width="1.66667"/>
<path d="M8.83333 18.3333C9.72222 20.3333 11.3667 25.4333 11.5 29.8333" stroke="#FAFAFA" stroke-width="1.33333" stroke-linecap="round"/>
<path d="M11.5 29.8333C12 27.2778 12.3333 22.3667 16.3333 20.5" stroke="#FAFAFA" stroke-width="1.33333" stroke-linecap="round"/>
<path d="M20.6667 29.8333C20.1667 27.2778 19.8333 22.5333 15.8333 20.6667" stroke="#FAFAFA" stroke-width="1.33333" stroke-linecap="round"/>
<path d="M23.1667 18.3333C22.2778 20.3333 20.8 25.4333 20.6667 29.8333" stroke="#FAFAFA" stroke-width="1.33333" stroke-linecap="round"/>
<path d="M11.5 29.8333C14 27.3333 18.1667 27.3333 20.6667 29.8333" stroke="#FAFAFA" stroke-width="1.33333" stroke-linecap="round"/>
<g clip-path="url(#clip0_2125_68)">
<path d="M8.66667 14.2639L13.7292 9.20142L16.9587 12.4309C17.8924 10.5905 19.4326 9.12876 21.3192 8.29242L23.3742 7.37742M23.3742 7.37742L18.9192 5.66667M23.3742 7.37742L21.6642 11.8324" stroke="#FAFAFA" stroke-width="1.66667" stroke-linecap="round" stroke-linejoin="round"/>
</g>
<path d="M5.83333 17.3333L3 16.3333" stroke="#FAFAFA" stroke-width="1.66667" stroke-linecap="round"/>
<path d="M3 16.3333V5.33333" stroke="#FAFAFA" stroke-width="1.66667" stroke-linecap="round"/>
<path d="M26 17.3333L28.8333 16.3333" stroke="#FAFAFA" stroke-width="1.66667" stroke-linecap="round"/>
<path d="M28.8333 16.3333V5.33333" stroke="#FAFAFA" stroke-width="1.66667" stroke-linecap="round"/>
<path d="M3 5.33333C7.5 0.833328 24.1667 0.666666 28.8333 5.33333" stroke="#FAFAFA" stroke-width="1.66667" stroke-linecap="round"/>
<path d="M50.784 17.792C50.784 16.9707 50.6187 16.32 50.288 15.84C49.968 15.36 49.456 15.12 48.752 15.12C48.432 15.12 48.128 15.168 47.84 15.264C47.5627 15.36 47.3387 15.4667 47.168 15.584V20.4C47.3067 20.432 47.4827 20.464 47.696 20.496C47.92 20.5173 48.1867 20.528 48.496 20.528C49.2107 20.528 49.7707 20.288 50.176 19.808C50.5813 19.3173 50.784 18.6453 50.784 17.792ZM52.768 17.824C52.768 18.496 52.6667 19.104 52.464 19.648C52.272 20.1813 51.9893 20.64 51.616 21.024C51.2533 21.408 50.8107 21.7013 50.288 21.904C49.7653 22.1067 49.1733 22.208 48.512 22.208C47.872 22.208 47.2587 22.16 46.672 22.064C46.096 21.968 45.616 21.8613 45.232 21.744V9.904L47.168 9.584V13.92C47.392 13.8027 47.664 13.696 47.984 13.6C48.3147 13.504 48.6773 13.456 49.072 13.456C49.6587 13.456 50.1813 13.5627 50.64 13.776C51.1093 13.9787 51.4987 14.272 51.808 14.656C52.1173 15.04 52.352 15.504 52.512 16.048C52.6827 16.5813 52.768 17.1733 52.768 17.824ZM57.7073 20.64C58.3046 20.64 58.7579 20.608 59.0673 20.544V18.4C58.9606 18.368 58.8059 18.336 58.6033 18.304C58.4006 18.272 58.1766 18.256 57.9313 18.256C57.7179 18.256 57.4993 18.272 57.2753 18.304C57.0619 18.336 56.8646 18.3947 56.6833 18.48C56.5126 18.5653 56.3739 18.688 56.2673 18.848C56.1606 18.9973 56.1073 19.1893 56.1073 19.424C56.1073 19.8827 56.2513 20.2027 56.5393 20.384C56.8273 20.5547 57.2166 20.64 57.7073 20.64ZM57.5473 13.424C58.1873 13.424 58.7259 13.504 59.1633 13.664C59.6006 13.824 59.9473 14.048 60.2033 14.336C60.4699 14.624 60.6566 14.976 60.7633 15.392C60.8806 15.7973 60.9393 16.2453 60.9393 16.736V21.808C60.6406 21.872 60.1873 21.9467 59.5793 22.032C58.9819 22.128 58.3046 22.176 57.5473 22.176C57.0459 22.176 56.5873 22.128 56.1713 22.032C55.7553 21.936 55.3979 21.7813 55.0993 21.568C54.8113 21.3547 54.5819 21.0773 54.4113 20.736C54.2513 20.3947 54.1713 19.9733 54.1713 19.472C54.1713 18.992 54.2619 18.5867 54.4433 18.256C54.6353 17.9253 54.8913 17.6587 55.2113 17.456C55.5313 17.2427 55.8993 17.0933 56.3153 17.008C56.7419 16.912 57.1846 16.864 57.6432 16.864C57.8566 16.864 58.0806 16.88 58.3153 16.912C58.5499 16.9333 58.8006 16.976 59.0673 17.04V16.72C59.0673 16.496 59.0406 16.2827 58.9873 16.08C58.9339 15.8773 58.8379 15.7013 58.6993 15.552C58.5713 15.392 58.3953 15.2693 58.1713 15.184C57.9579 15.0987 57.6859 15.056 57.3553 15.056C56.9073 15.056 56.4966 15.088 56.1233 15.152C55.7499 15.216 55.4459 15.2907 55.2113 15.376L54.9713 13.808C55.2166 13.7227 55.5739 13.6373 56.0433 13.552C56.5126 13.4667 57.0139 13.424 57.5473 13.424ZM62.8461 17.824C62.8461 17.2053 62.9421 16.6293 63.1341 16.096C63.3261 15.552 63.5981 15.0827 63.9501 14.688C64.3128 14.2933 64.7501 13.984 65.2621 13.76C65.7741 13.536 66.3501 13.424 66.9901 13.424C67.7795 13.424 68.5261 13.568 69.2301 13.856L68.8141 15.44C68.5901 15.344 68.3341 15.264 68.0461 15.2C67.7688 15.136 67.4701 15.104 67.1501 15.104C66.3928 15.104 65.8168 15.344 65.4221 15.824C65.0275 16.2933 64.8301 16.96 64.8301 17.824C64.8301 18.656 65.0168 19.3173 65.3901 19.808C65.7635 20.288 66.3928 20.528 67.2781 20.528C67.6088 20.528 67.9341 20.496 68.2541 20.432C68.5741 20.368 68.8515 20.288 69.0861 20.192L69.3581 21.792C69.1448 21.8987 68.8195 21.9947 68.3821 22.08C67.9555 22.1653 67.5128 22.208 67.0541 22.208C66.3395 22.208 65.7155 22.1013 65.1821 21.888C64.6595 21.664 64.2221 21.36 63.8701 20.976C63.5288 20.5813 63.2728 20.1173 63.1021 19.584C62.9315 19.04 62.8461 18.4533 62.8461 17.824ZM72.793 16.896C73.0383 16.64 73.2997 16.368 73.577 16.08C73.8543 15.7813 74.1263 15.488 74.393 15.2C74.6597 14.9013 74.9103 14.6187 75.145 14.352C75.3903 14.0747 75.5983 13.8347 75.769 13.632H78.057C77.5237 14.2293 76.9583 14.848 76.361 15.488C75.7743 16.128 75.1823 16.752 74.585 17.36C74.905 17.6267 75.241 17.952 75.593 18.336C75.945 18.7093 76.2863 19.1093 76.617 19.536C76.9477 19.9627 77.257 20.3893 77.545 20.816C77.833 21.2427 78.073 21.6373 78.265 22H76.025C75.833 21.6693 75.609 21.3227 75.353 20.96C75.1077 20.5973 74.841 20.2453 74.553 19.904C74.265 19.5627 73.9717 19.2427 73.673 18.944C73.3743 18.6347 73.081 18.3733 72.793 18.16V22H70.857V9.904L72.793 9.584V16.896ZM85.2215 17.792C85.2215 16.9707 85.0562 16.32 84.7255 15.84C84.4055 15.36 83.8935 15.12 83.1895 15.12C82.8695 15.12 82.5655 15.168 82.2775 15.264C82.0002 15.36 81.7762 15.4667 81.6055 15.584V20.4C81.7442 20.432 81.9202 20.464 82.1335 20.496C82.3575 20.5173 82.6242 20.528 82.9335 20.528C83.6482 20.528 84.2082 20.288 84.6135 19.808C85.0188 19.3173 85.2215 18.6453 85.2215 17.792ZM87.2055 17.824C87.2055 18.496 87.1042 19.104 86.9015 19.648C86.7095 20.1813 86.4268 20.64 86.0535 21.024C85.6908 21.408 85.2482 21.7013 84.7255 21.904C84.2028 22.1067 83.6108 22.208 82.9495 22.208C82.3095 22.208 81.6962 22.16 81.1095 22.064C80.5335 21.968 80.0535 21.8613 79.6695 21.744V9.904L81.6055 9.584V13.92C81.8295 13.8027 82.1015 13.696 82.4215 13.6C82.7522 13.504 83.1148 13.456 83.5095 13.456C84.0962 13.456 84.6188 13.5627 85.0775 13.776C85.5468 13.9787 85.9362 14.272 86.2455 14.656C86.5548 15.04 86.7895 15.504 86.9495 16.048C87.1202 16.5813 87.2055 17.1733 87.2055 17.824ZM96.7688 17.808C96.7688 18.4693 96.6728 19.072 96.4808 19.616C96.2888 20.16 96.0168 20.624 95.6648 21.008C95.3128 21.392 94.8861 21.6907 94.3848 21.904C93.8941 22.1173 93.3501 22.224 92.7528 22.224C92.1554 22.224 91.6114 22.1173 91.1208 21.904C90.6301 21.6907 90.2088 21.392 89.8568 21.008C89.5048 20.624 89.2274 20.16 89.0247 19.616C88.8328 19.072 88.7368 18.4693 88.7368 17.808C88.7368 17.1467 88.8328 16.5493 89.0247 16.016C89.2274 15.472 89.5048 15.008 89.8568 14.624C90.2194 14.24 90.6461 13.9467 91.1368 13.744C91.6274 13.5307 92.1661 13.424 92.7528 13.424C93.3394 13.424 93.8781 13.5307 94.3688 13.744C94.8701 13.9467 95.2968 14.24 95.6488 14.624C96.0008 15.008 96.2728 15.472 96.4648 16.016C96.6674 16.5493 96.7688 17.1467 96.7688 17.808ZM94.7848 17.808C94.7848 16.976 94.6034 16.32 94.2408 15.84C93.8888 15.3493 93.3928 15.104 92.7528 15.104C92.1128 15.104 91.6114 15.3493 91.2488 15.84C90.8968 16.32 90.7208 16.976 90.7208 17.808C90.7208 18.6507 90.8968 19.3173 91.2488 19.808C91.6114 20.2987 92.1128 20.544 92.7528 20.544C93.3928 20.544 93.8888 20.2987 94.2408 19.808C94.6034 19.3173 94.7848 18.6507 94.7848 17.808ZM101.707 20.64C102.305 20.64 102.758 20.608 103.067 20.544V18.4C102.961 18.368 102.806 18.336 102.603 18.304C102.401 18.272 102.177 18.256 101.931 18.256C101.718 18.256 101.499 18.272 101.275 18.304C101.062 18.336 100.865 18.3947 100.683 18.48C100.513 18.5653 100.374 18.688 100.267 18.848C100.161 18.9973 100.107 19.1893 100.107 19.424C100.107 19.8827 100.251 20.2027 100.539 20.384C100.827 20.5547 101.217 20.64 101.707 20.64ZM101.547 13.424C102.187 13.424 102.726 13.504 103.163 13.664C103.601 13.824 103.947 14.048 104.203 14.336C104.47 14.624 104.657 14.976 104.763 15.392C104.881 15.7973 104.939 16.2453 104.939 16.736V21.808C104.641 21.872 104.187 21.9467 103.579 22.032C102.982 22.128 102.305 22.176 101.547 22.176C101.046 22.176 100.587 22.128 100.171 22.032C99.7553 21.936 99.3979 21.7813 99.0993 21.568C98.8113 21.3547 98.5819 21.0773 98.4113 20.736C98.2513 20.3947 98.1713 19.9733 98.1713 19.472C98.1713 18.992 98.2619 18.5867 98.4433 18.256C98.6353 17.9253 98.8913 17.6587 99.2113 17.456C99.5313 17.2427 99.8993 17.0933 100.315 17.008C100.742 16.912 101.185 16.864 101.643 16.864C101.857 16.864 102.081 16.88 102.315 16.912C102.55 16.9333 102.801 16.976 103.067 17.04V16.72C103.067 16.496 103.041 16.2827 102.987 16.08C102.934 15.8773 102.838 15.7013 102.699 15.552C102.571 15.392 102.395 15.2693 102.171 15.184C101.958 15.0987 101.686 15.056 101.355 15.056C100.907 15.056 100.497 15.088 100.123 15.152C99.7499 15.216 99.4459 15.2907 99.2113 15.376L98.9713 13.808C99.2166 13.7227 99.5739 13.6373 100.043 13.552C100.513 13.4667 101.014 13.424 101.547 13.424ZM112.078 15.376C111.918 15.3227 111.694 15.2693 111.406 15.216C111.129 15.152 110.803 15.12 110.43 15.12C110.217 15.12 109.987 15.1413 109.742 15.184C109.507 15.2267 109.342 15.264 109.246 15.296V22H107.31V14.032C107.683 13.8933 108.147 13.7653 108.702 13.648C109.267 13.52 109.891 13.456 110.574 13.456C110.702 13.456 110.851 13.4667 111.022 13.488C111.193 13.4987 111.363 13.52 111.534 13.552C111.705 13.5733 111.87 13.6053 112.03 13.648C112.19 13.68 112.318 13.712 112.414 13.744L112.078 15.376ZM115.283 17.792C115.283 18.6453 115.486 19.3173 115.891 19.808C116.297 20.288 116.857 20.528 117.571 20.528C117.881 20.528 118.142 20.5173 118.355 20.496C118.579 20.464 118.761 20.432 118.899 20.4V15.6C118.729 15.4827 118.499 15.376 118.211 15.28C117.934 15.1733 117.635 15.12 117.315 15.12C116.611 15.12 116.094 15.36 115.763 15.84C115.443 16.32 115.283 16.9707 115.283 17.792ZM120.835 21.744C120.451 21.8613 119.966 21.968 119.379 22.064C118.803 22.16 118.195 22.208 117.555 22.208C116.894 22.208 116.302 22.1067 115.779 21.904C115.257 21.7013 114.809 21.4133 114.435 21.04C114.073 20.656 113.79 20.1973 113.587 19.664C113.395 19.12 113.299 18.512 113.299 17.84C113.299 17.1787 113.379 16.5813 113.539 16.048C113.71 15.504 113.955 15.04 114.275 14.656C114.595 14.272 114.985 13.9787 115.443 13.776C115.902 13.5627 116.43 13.456 117.027 13.456C117.433 13.456 117.79 13.504 118.099 13.6C118.409 13.696 118.675 13.8027 118.899 13.92V9.904L120.835 9.584V21.744Z" fill="#FAFAFA"/>
<defs>
<clipPath id="clip0_2125_68">
<rect width="18" height="18" fill="white" transform="translate(7 1)"/>
</clipPath>
</defs>
</svg>
